<svg xmlns="http://www.w3.org/2000/svg">
  <symbol id="o-icon-location" viewBox="0 0 20 20">
    <path d="M8.65 19a.45.45 0 0 1-.45-.45V11.8H1.45a.45.45 0 0 1-.226-.84l17.1-9.9a.45.45 0 0 1 .615.615l-9.9 17.1a.45.45 0 0 1-.39.225zm-5.524-8.1H8.65a.45.45 0 0 1 .45.45v5.524l8.216-14.19z"/>
  </symbol>

  <symbol id="o-icon-clock" viewBox="0 0 20 20">
    <path d="M16.461 16.264A8.938 8.938 0 0 0 19 10a8.933 8.933 0 0 0-2.31-6.02l.652-.652.613.612a.471.471 0 0 0 .669 0 .474.474 0 0 0 0-.67l-1.895-1.894a.474.474 0 0 0-.67.67l.613.612-.651.651C14.365 1.817 12.245 1 10 1s-4.365.817-6.02 2.31l-.652-.652.612-.612a.474.474 0 0 0-.67-.67L1.375 3.271a.474.474 0 0 0 .67.67l.613-.613.652.652A8.933 8.933 0 0 0 1 10c0 2.358.9 4.576 2.539 6.264l-1.927 1.927a.474.474 0 0 0 .67.67l1.952-1.95C5.85 18.262 7.868 19 10.001 19s4.151-.737 5.767-2.09l1.95 1.95a.473.473 0 1 0 .67-.669zM1.947 10c0-4.44 3.613-8.052 8.053-8.052S18.053 5.56 18.053 10 14.44 18.052 10 18.052 1.947 14.44 1.947 10z"/><path d="M15.333 6.921a.474.474 0 0 0-.647-.173l-4.661 2.691L6.39 6.896a.474.474 0 0 0-.542.776l3.88 2.716.002.002a.38.38 0 0 0 .026.016l.005.004.026.014.005.003.03.013.018.007.012.005.02.006.011.002.021.005.012.002.02.003c.004 0 .009 0 .014.002.005 0 .011 0 .017.002H10c.018 0 .035 0 .053-.002h.003a.323.323 0 0 0 .051-.01h.005a.391.391 0 0 0 .098-.037l.01-.005.016-.008 4.922-2.842a.474.474 0 0 0 .174-.647z"/>
  </symbol>
</svg>
